<svg id="Layer_1" data-name="Layer 1" xmlns="http://www.w3.org/2000/svg" xmlns:xlink="http://www.w3.org/1999/xlink" viewBox="0 0 39.31 52.59"><defs><style>.cls-1{fill:none;}.cls-2,.cls-3,.cls-6,.cls-7,.cls-8{stroke:#000;stroke-miterlimit:10;}.cls-3,.cls-9{fill:#fff;}.cls-4{clip-path:url(#clip-path);}.cls-5{fill:#444;}.cls-6{fill:#d9d9d9;}.cls-11,.cls-7{fill:#9d9d9d;}.cls-8{fill:#939393;}.cls-10{fill:#303030;}</style><clipPath id="clip-path" transform="translate(-5.36 3.91)"><rect class="cls-1" x="10.98" y="2.66" width="29.18" height="26.32" rx="11.57" ry="11.57"/></clipPath></defs><title>player1</title><path class="cls-2" d="M16.35,38.61l-5.14-5.85a3.43,3.43,0,0,1,0-4.53l5.14-5.86a3.43,3.43,0,0,1,2.58-1.16h13.2a3.42,3.42,0,0,1,2.57,1.16l5.14,5.86a3.43,3.43,0,0,1,0,4.53L34.7,38.61a3.43,3.43,0,0,1-2.57,1.17H18.93A3.44,3.44,0,0,1,16.35,38.61Z" transform="translate(-5.36 3.91)"/><rect class="cls-2" x="8.47" y="24.61" width="23.38" height="21.93" rx="4.46" ry="4.46"/><rect class="cls-3" x="3.86" y="32.19" width="7.28" height="7.28" rx="2.73" ry="2.73"/><rect class="cls-3" x="29.19" y="32.19" width="7.28" height="7.28" rx="2.73" ry="2.73"/><path class="cls-3" d="M40.16,16.67h0c0-.29,0-.57,0-.86h0A13.2,13.2,0,0,0,27,2.66H23.84A13.2,13.2,0,0,0,10.67,15.82h0c0,.33,0,.64.05,1a2.13,2.13,0,0,0-1.5,2v.71a2.14,2.14,0,0,0,2.13,2.12,2.39,2.39,0,0,0,.65-.11A13.18,13.18,0,0,0,23.84,29H27a13.19,13.19,0,0,0,12-7.72,2.18,2.18,0,0,0,1.2.37,2.13,2.13,0,0,0,2.12-2.12V18.8A2.13,2.13,0,0,0,40.16,16.67Z" transform="translate(-5.36 3.91)"/><g class="cls-4"><path class="cls-5" d="M12,17.29l6-6.49c0-.12,0-.23,0-.35A6.62,6.62,0,0,0,11.7,3.58a6.62,6.62,0,0,0-6.32,6.87,6.62,6.62,0,0,0,6.32,6.88A2.91,2.91,0,0,0,12,17.29Z" transform="translate(-5.36 3.91)"/><path d="M44.6,4.93c.3,5.45.23,9.28-9.54,10.61C24.31,17,5.67,12.51,5.37,7.07S13.62-3.26,24.45-3.85,44.3-.51,44.6,4.93Z" transform="translate(-5.36 3.91)"/></g><path class="cls-6" d="M23,39.26H16.64A1.76,1.76,0,0,0,14.9,41v2.69a4.45,4.45,0,0,0,4.4,4.46h1a4.45,4.45,0,0,0,4.4-4.46V41A1.75,1.75,0,0,0,23,39.26Z" transform="translate(-5.36 3.91)"/><path class="cls-6" d="M34.56,39.26H28.23A1.75,1.75,0,0,0,26.49,41v2.69a4.44,4.44,0,0,0,4.39,4.46h1a4.44,4.44,0,0,0,4.39-4.46V41A1.75,1.75,0,0,0,34.56,39.26Z" transform="translate(-5.36 3.91)"/><path class="cls-7" d="M14.35,39.26c1,4.18-.51,4.77,5.59,4.74h4.63a.33.33,0,0,1,0-.14l.53-1a.52.52,0,0,1,.91,0l.54,1a.33.33,0,0,1,0,.14H31c6.8.21,4.92-.48,5.54-4.51Z" transform="translate(-5.36 3.91)"/><path class="cls-8" d="M25.5,1.37a14.22,14.22,0,0,0-13.82,10c5.27,5.11,8.26,6.06,13.82,6.06s9.07-1.44,13.81-6.06A14.22,14.22,0,0,0,25.5,1.37Z" transform="translate(-5.36 3.91)"/><path class="cls-9" d="M31.53,15.78a17.46,17.46,0,0,1-6.44.94c-4.47,0-6.44-1.14-6.44-1.14,0-.67,3.05-1.21,6.44-1.21S31.53,15.12,31.53,15.78Z" transform="translate(-5.36 3.91)"/><path class="cls-10" d="M34.46,14a27.32,27.32,0,0,0-1.34-2.5l.26-.08c.52.4.76.59,1.21.92a7.14,7.14,0,0,1,.66.54h0c-.16-.27-.3-.53-.48-.86s-.29-.53-.49-.87l.22-.07a20.92,20.92,0,0,1,1.09,2l-.2.16c-.4-.29-.61-.46-1.08-.82a8.78,8.78,0,0,1-.75-.64h0c.19.3.35.58.57,1s.32.62.52,1.05Z" transform="translate(-5.36 3.91)"/><path class="cls-10" d="M35.38,11l-.55.19L34.71,11l1.35-.43.1.16-.55.2a17.35,17.35,0,0,1,.81,1.54l-.2.15C35.91,12,35.74,11.62,35.38,11Z" transform="translate(-5.36 3.91)"/><path class="cls-10" d="M36.5,10.41c.19.32.28.48.46.81s.38.34.58.19a.46.46,0,0,0,.19-.63,7,7,0,0,0-.36-.65l.24-.07c.14.23.21.35.33.59s0,.64-.34.9-.62.25-.86-.21-.28-.52-.48-.85Z" transform="translate(-5.36 3.91)"/><rect x="15.05" y="22.95" width="1.95" height="4.92" rx="0.73" ry="0.73"/><rect x="23.34" y="22.95" width="1.95" height="4.92" rx="0.73" ry="0.73"/><rect class="cls-11" x="17.17" y="29.96" width="5.83" height="0.53" rx="0.2" ry="0.2"/></svg>